<?xml version="1.0" encoding="UTF-8" standalone="no"?>
<svg width="152px" height="16px" viewBox="0 0 152 16" version="1.1" xmlns="http://www.w3.org/2000/svg" xmlns:xlink="http://www.w3.org/1999/xlink" xmlns:sketch="http://www.bohemiancoding.com/sketch/ns">
    <!-- Generator: Sketch 3.4.2 (15857) - http://www.bohemiancoding.com/sketch -->
    <title>rocket logo copy + Rectangle 325 + 2015</title>
    <desc>Created with Sketch.</desc>
    <defs></defs>
    <g id="kinoindustriya" stroke="none" stroke-width="1" fill="none" fill-rule="evenodd" sketch:type="MSPage">
        <g id="kinoidustry" sketch:type="MSArtboardGroup" transform="translate(-1068.000000, -2072.000000)">
            <g id="footer" sketch:type="MSLayerGroup" transform="translate(-219.000000, 1916.000000)">
                <g id="rocket-logo-copy-+-Rectangle-325-+-2015" transform="translate(1287.000000, 156.000000)">
                    <g>
                        <g id="rocket-logo-copy" sketch:type="MSShapeGroup">
                            <g id="Group" transform="translate(0.000000, 2.782609)" fill="#000000">
                                <path d="M5.51807101,10.5384348 L3.60004734,7.08243478 L2.07791716,7.08243478 L2.07791716,10.5384348 L0,10.5384348 L0,0.811826087 L4.57476923,0.811826087 C5.08307692,0.811826087 5.5404142,0.889043478 5.94608284,1.04556522 C6.35175148,1.20069565 6.69597633,1.41913043 6.97945562,1.70086957 C7.26293491,1.98330435 7.48008284,2.31652174 7.63229586,2.70052174 C7.78450888,3.08452174 7.85991716,3.49982609 7.85991716,3.94713043 C7.85991716,4.37495652 7.79847337,4.75478261 7.6755858,5.08521739 C7.55269822,5.41634783 7.38861538,5.69947826 7.18194083,5.93808696 C6.9759645,6.176 6.74485207,6.37078261 6.48930178,6.52104348 C6.23305325,6.67269565 5.97331361,6.77704348 5.70798817,6.83547826 L7.90390533,10.5391304 L5.51807101,10.5391304 L5.51807101,10.5384348 Z M4.2591716,5.25913043 C4.67880473,5.25913043 5.02791716,5.14295652 5.30581065,4.90921739 C5.58370414,4.67617391 5.72265089,4.35547826 5.72265089,3.94643478 C5.72265089,3.53878261 5.58370414,3.2173913 5.30581065,2.98365217 C5.02791716,2.75130435 4.67880473,2.63373913 4.2591716,2.63373913 L2.07861538,2.63373913 L2.07861538,5.25843478 L4.2591716,5.25843478 L4.2591716,5.25913043 Z" id="Shape"></path>
                                <path d="M14.4029822,10.7144348 C13.6712426,10.7144348 12.992568,10.5892174 12.368355,10.3422609 C11.7434438,10.0946087 11.2044142,9.74678261 10.7512663,9.29878261 C10.2974201,8.85147826 9.94342012,8.31930435 9.6899645,7.70295652 C9.43581065,7.08521739 9.30943195,6.41182609 9.30943195,5.68278261 C9.30943195,4.95373913 9.43650888,4.28034783 9.6899645,3.6626087 C9.94342012,3.04626087 10.2974201,2.51408696 10.7512663,2.06678261 C11.2044142,1.61878261 11.7434438,1.27095652 12.368355,1.02330435 C12.992568,0.775652174 13.6712426,0.651130435 14.4029822,0.651130435 C15.144497,0.651130435 15.8280592,0.775652174 16.4529704,1.02330435 C17.0771834,1.27095652 17.616213,1.61878261 18.0700592,2.06678261 C18.5232071,2.51408696 18.8779053,3.04626087 19.1313609,3.6626087 C19.3855148,4.28034783 19.5118935,4.95373913 19.5118935,5.68278261 C19.5118935,6.41182609 19.3848166,7.08591304 19.1313609,7.70295652 C18.8779053,8.31930435 18.5239053,8.85147826 18.0700592,9.29878261 C17.616213,9.74678261 17.0771834,10.0946087 16.4529704,10.3422609 C15.8280592,10.5892174 15.144497,10.7144348 14.4029822,10.7144348 L14.4029822,10.7144348 Z M14.4029822,8.87652174 C14.8526391,8.87652174 15.2597041,8.79304348 15.625574,8.62886957 C15.9914438,8.46330435 16.3035503,8.24 16.5618935,7.95826087 C16.8202367,7.67582609 17.0206272,7.34052174 17.1623669,6.95165217 C17.3034083,6.56278261 17.373929,6.14052174 17.373929,5.68278261 C17.373929,5.22643478 17.3027101,4.80278261 17.1623669,4.41391304 C17.0206272,4.02504348 16.8202367,3.68765217 16.5618935,3.40034783 C16.3028521,3.11304348 15.9914438,2.88904348 15.625574,2.72904348 C15.2597041,2.56904348 14.8519408,2.48834783 14.4029822,2.48834783 C13.9540237,2.48834783 13.5469586,2.56904348 13.1810888,2.72904348 C12.8152189,2.88904348 12.5052071,3.11304348 12.2517515,3.40034783 C11.9975976,3.68695652 11.8,4.02434783 11.6589586,4.41321739 C11.5172189,4.80208696 11.4466982,5.22504348 11.4466982,5.68208696 C11.4466982,6.13982609 11.5179172,6.56208696 11.6589586,6.95095652 C11.8,7.33982609 11.9975976,7.67582609 12.2517515,7.95756522 C12.5052071,8.23930435 12.8152189,8.4626087 13.1810888,8.62817391 C13.5469586,8.79304348 13.9540237,8.87652174 14.4029822,8.87652174 L14.4029822,8.87652174 Z" id="Shape"></path>
                                <path d="M25.9963077,10.7144348 C25.264568,10.7144348 24.5810059,10.592 23.9470178,10.3492174 C23.3123314,10.1057391 22.7635266,9.76347826 22.3006036,9.32104348 C21.8369822,8.8786087 21.4711124,8.34852174 21.2029941,7.73078261 C20.9341775,7.11443478 20.8001183,6.43130435 20.8001183,5.68208696 C20.8001183,4.93426087 20.9341775,4.25113043 21.2029941,3.6333913 C21.4711124,3.01565217 21.8369822,2.48556522 22.3006036,2.04313043 C22.7642249,1.60069565 23.3123314,1.25843478 23.9470178,1.01495652 C24.5810059,0.772173913 25.264568,0.64973913 25.9963077,0.64973913 C26.5325444,0.64973913 27.015716,0.718608696 27.4451243,0.854956522 C27.8745325,0.991304348 28.2550651,1.168 28.5867219,1.38713043 C28.9183787,1.60556522 29.2060473,1.85808696 29.4497278,2.14469565 C29.6941065,2.432 29.903574,2.72556522 30.0795266,3.02678261 L28.2941657,3.9026087 C28.0895858,3.504 27.7816686,3.16869565 27.3718107,2.8973913 C26.9619527,2.62469565 26.5032189,2.48834783 25.9963077,2.48834783 C25.5571243,2.48834783 25.1500592,2.56904348 24.773716,2.72904348 C24.398071,2.88904348 24.0733964,3.11304348 23.8003905,3.40034783 C23.5266864,3.68765217 23.314426,4.02504348 23.1629112,4.41391304 C23.0113964,4.80278261 22.9359882,5.22573913 22.9359882,5.68278261 C22.9359882,6.14052174 23.0113964,6.56486957 23.1629112,6.9586087 C23.314426,7.35234783 23.5266864,7.69043478 23.8003905,7.97217391 C24.0726982,8.2546087 24.3973728,8.47652174 24.773716,8.63652174 C25.1500592,8.79652174 25.5571243,8.87721739 25.9963077,8.87721739 C26.5032189,8.87721739 26.9619527,8.74295652 27.3718107,8.47652174 C27.7816686,8.20869565 28.0895858,7.8706087 28.2941657,7.46295652 L30.0795266,8.32208696 C29.9042722,8.62469565 29.6941065,8.91826087 29.4497278,9.20556522 C29.2060473,9.49078261 28.9176805,9.74678261 28.5867219,9.97078261 C28.2543669,10.194087 27.8745325,10.3749565 27.4451243,10.509913 C27.015716,10.6448696 26.5325444,10.7144348 25.9963077,10.7144348 L25.9963077,10.7144348 Z" id="Shape"></path>
                                <path d="M37.9254793,10.5384348 L34.9691953,6.64486957 L34.2081302,7.54782609 L34.2081302,10.5377391 L32.1295148,10.5377391 L32.1295148,0.811826087 L34.2081302,0.811826087 L34.2081302,5.15756522 L37.6622485,0.811826087 L40.2240355,0.811826087 L36.3446982,5.37669565 L40.4879645,10.5384348 L37.9254793,10.5384348 L37.9254793,10.5384348 Z" id="Shape"></path>
                                <path d="M42.3173136,10.5384348 L42.3173136,0.811826087 L49.2262485,0.811826087 L49.2262485,2.63443478 L44.395929,2.63443478 L44.395929,4.69147826 L49.1236095,4.69147826 L49.1236095,6.51408696 L44.395929,6.51408696 L44.395929,8.71582609 L49.2262485,8.71582609 L49.2262485,10.5391304 L42.3173136,10.5391304 L42.3173136,10.5384348 Z" id="Shape"></path>
                                <path d="M54.056568,10.5384348 L54.056568,2.63373913 L51.2015266,2.63373913 L51.2015266,0.811130435 L58.9748639,0.811130435 L58.9748639,2.63373913 L56.1351834,2.63373913 L56.1351834,10.5384348 L54.056568,10.5384348 L54.056568,10.5384348 Z" id="Shape"></path>
                            </g>
                            <g id="Group" transform="translate(82.390533, 3.478261)" fill="#000000">
                                <path d="M0.603266272,9.84278261 L0.603266272,0.116173913 L7.51289941,0.116173913 L7.51289941,1.93878261 L2.68118343,1.93878261 L2.68118343,3.99582609 L7.41026036,3.99582609 L7.41026036,5.81843478 L2.68118343,5.81843478 L2.68118343,9.84347826 L0.603266272,9.84347826 L0.603266272,9.84278261 Z" id="Shape"></path>
                                <path d="M9.84078107,9.84278261 L9.84078107,0.116173913 L11.9193964,0.116173913 L11.9193964,9.84278261 L9.84078107,9.84278261 L9.84078107,9.84278261 Z" id="Shape"></path>
                                <path d="M19.9538698,9.84278261 L18.0365444,6.38678261 L16.5144142,6.38678261 L16.5144142,9.84278261 L14.436497,9.84278261 L14.436497,0.116173913 L19.010568,0.116173913 C19.519574,0.116173913 19.9776095,0.193391304 20.3818817,0.349913043 C20.7889467,0.505043478 21.1317751,0.723478261 21.4159527,1.00521739 C21.7001302,1.28695652 21.9165799,1.62086957 22.0694911,2.00486957 C22.2210059,2.38886957 22.2950178,2.80417391 22.2950178,3.25147826 C22.2950178,3.67930435 22.2342722,4.05913043 22.1120828,4.38956522 C21.9877988,4.72069565 21.823716,5.00382609 21.6177396,5.24243478 C21.4117633,5.48034783 21.1813491,5.67513043 20.9257988,5.8253913 C20.6695503,5.97704348 20.4105089,6.0813913 20.143787,6.13982609 L22.3404024,9.84347826 L19.9538698,9.84347826 L19.9538698,9.84278261 Z M18.6942722,4.56347826 C19.1146036,4.56347826 19.463716,4.44730435 19.7416095,4.21356522 C20.019503,3.98052174 20.1584497,3.65982609 20.1584497,3.25078261 C20.1584497,2.84313043 20.0202012,2.52173913 19.7416095,2.288 C19.463716,2.05565217 19.1146036,1.93808696 18.6942722,1.93808696 L16.5144142,1.93808696 L16.5144142,4.56278261 L18.6942722,4.56278261 L18.6942722,4.56347826 Z" id="Shape"></path>
                                <path d="M32.8500828,9.84278261 L32.8500828,3.03234783 L30.0983787,9.84278261 L29.1913846,9.84278261 L26.4396805,3.03234783 L26.4396805,9.84278261 L24.3610651,9.84278261 L24.3610651,0.116173913 L27.2691716,0.116173913 L29.6375503,5.99373913 L32.005929,0.116173913 L34.9300947,0.116173913 L34.9300947,9.84278261 L32.8500828,9.84278261 L32.8500828,9.84278261 Z" id="Shape"></path>
                            </g>
                            <g id="Group" transform="translate(62.142012, 0.000000)" fill="#EF4423">
                                <path d="M16.1981183,7.98121739 C16.200213,3.60973913 12.6406627,0.0674782609 8.2544142,0.0660869565 C3.86048521,0.064 0.303727811,3.60973913 0.303727811,7.984 C0.304426036,12.3568696 3.86048521,15.9033043 8.24952663,15.901913 C12.6434556,15.8998261 16.1988166,12.3561739 16.1981183,7.98121739 L16.1981183,7.98121739 Z M6.5095503,13.2083478 C6.11156213,13.2841739 6.15624852,13.0984348 6.27913609,12.9314783 C6.33010651,12.8674783 6.38247337,12.8153043 6.44810651,12.7436522 C7.28946746,11.7906087 7.94719527,11.4393043 6.8551716,11.4386087 C5.79107692,11.4386087 5.4056568,11.4184348 5.11170414,11.1269565 L5.10332544,11.1186087 L5.09215385,11.1088696 C4.90712426,10.9224348 4.78423669,10.4034783 4.78423669,9.37321739 C4.78423669,8.28591304 4.42953846,8.94052174 3.47017751,9.7773913 C3.3996568,9.84486957 3.34728994,9.89843478 3.2816568,9.94713043 C3.11687574,10.0702609 2.92975148,10.1147826 3.00515976,9.71617391 C3.13642604,9.03791304 3.77390533,7.296 4.55801183,6.784 C5.70589349,6.02852174 6.80769231,6.06886957 7.16867456,5.80591304 C9.68647337,3.99513043 12.0932544,3.27930435 12.6036568,3.6466087 C12.9709231,4.15373913 12.2552426,6.54886957 10.4363669,9.06017391 C10.169645,9.42121739 10.2129349,10.5196522 9.45326627,11.661913 C8.94007101,12.4438261 7.19171598,13.0768696 6.5095503,13.2083478 L6.5095503,13.2083478 Z" id="Shape"></path>
                                <path d="M10.1675503,7.48034783 C10.1438107,8.23443478 9.51331361,8.82226087 8.75085207,8.79304348 C8.0044497,8.76452174 7.41095858,8.13286957 7.43539645,7.37878261 C7.46402367,6.6226087 8.10220118,6.04034783 8.85628402,6.06469565 C9.61246154,6.09252174 10.1996686,6.72765217 10.1675503,7.48034783 L10.1675503,7.48034783 Z" id="Shape"></path>
                            </g>
                        </g>
                        <rect id="Rectangle-325" stroke="#000000" opacity="0.7" sketch:type="MSShapeGroup" x="122" y="2" width="30" height="13" rx="3"></rect>
                        <text id="2015" sketch:type="MSTextLayer" font-family="Helvetica Neue" font-size="8" font-weight="normal" fill="#000000">
                            <tspan x="128" y="11">2016</tspan>
                        </text>
                    </g>
                </g>
            </g>
        </g>
    </g>
</svg>