<svg width="152" height="16" viewBox="0 0 152 16" xmlns="http://www.w3.org/2000/svg"><title>rocket logo copy + Rectangle 325 + 2015</title><g fill="none" fill-rule="evenodd"><path d="M5.518 13.321L3.6 9.865H2.078v3.456H0V3.594h4.575c.508 0 .965.078 1.371.234.406.155.75.374 1.033.655a2.9 2.9 0 0 1 .653 1c.153.384.228.8.228 1.247 0 .428-.062.807-.184 1.138a2.743 2.743 0 0 1-1.187 1.436 2.646 2.646 0 0 1-.781.314l2.196 3.704H5.518v-.001zM4.26 8.041c.42 0 .769-.115 1.047-.35.278-.232.417-.553.417-.962 0-.408-.14-.729-.417-.963-.278-.232-.627-.35-1.047-.35H2.08v2.625h2.18zm10.143 5.456c-.732 0-1.41-.125-2.035-.372a4.77 4.77 0 0 1-1.617-1.044 4.749 4.749 0 0 1-1.061-1.595 5.258 5.258 0 0 1-.38-2.02c0-.73.127-1.403.38-2.02a4.749 4.749 0 0 1 1.061-1.597 4.77 4.77 0 0 1 1.617-1.043 5.47 5.47 0 0 1 2.035-.372c.741 0 1.425.124 2.05.372a4.784 4.784 0 0 1 1.617 1.043c.453.448.808.98 1.061 1.596.255.618.38 1.291.38 2.02a5.25 5.25 0 0 1-.38 2.02 4.749 4.749 0 0 1-1.06 1.596 4.784 4.784 0 0 1-1.618 1.044 5.53 5.53 0 0 1-2.05.372zm0-1.838c.45 0 .857-.083 1.223-.248.365-.165.678-.388.936-.67.258-.283.459-.618.6-1.007a3.69 3.69 0 0 0 .212-1.269c0-.456-.071-.88-.212-1.268a3.07 3.07 0 0 0-.6-1.014 2.701 2.701 0 0 0-.936-.671 3.02 3.02 0 0 0-1.223-.241c-.449 0-.856.08-1.222.24-.366.16-.676.385-.93.672a3.102 3.102 0 0 0-.592 1.013 3.678 3.678 0 0 0-.212 1.269c0 .457.07.88.212 1.269.141.388.339.724.593 1.006.253.282.563.505.93.67a2.94 2.94 0 0 0 1.221.25zm11.593 1.838a5.684 5.684 0 0 1-2.049-.365 4.883 4.883 0 0 1-1.646-1.028 4.826 4.826 0 0 1-1.098-1.59c-.269-.617-.403-1.3-.403-2.05 0-.747.134-1.43.403-2.048a4.826 4.826 0 0 1 1.098-1.59 4.89 4.89 0 0 1 1.646-1.028 5.684 5.684 0 0 1 2.05-.366c.536 0 1.019.07 1.448.206.43.136.81.313 1.142.532.331.218.619.47.863.757.244.288.454.581.63.882l-1.786.876a2.657 2.657 0 0 0-.922-1.005 2.429 2.429 0 0 0-1.376-.409c-.439 0-.846.08-1.222.24-.376.16-.7.385-.974.672a3.063 3.063 0 0 0-.637 1.014 3.465 3.465 0 0 0-.227 1.268c0 .458.075.882.227 1.276.151.394.364.732.637 1.014.273.282.597.504.974.664.376.16.783.24 1.222.24a2.47 2.47 0 0 0 1.376-.4 2.59 2.59 0 0 0 .922-1.013l1.786.859a6.031 6.031 0 0 1-.63.883 4.294 4.294 0 0 1-.863.765 4.398 4.398 0 0 1-1.142.54c-.43.134-.912.204-1.449.204zm11.929-.176L34.97 9.427l-.76.903v2.99h-2.08V3.594h2.08V7.94l3.453-4.346h2.562l-3.88 4.565 4.144 5.162h-2.563zm4.392 0V3.594h6.91v1.823h-4.831v2.057h4.728v1.823h-4.728v2.201h4.83v1.824h-6.909v-.001zm11.74 0V5.416h-2.855V3.594h7.773v1.822h-2.84v7.905h-2.078zm28.937 0V3.594h6.91v1.823h-4.832v2.057H89.8v1.823h-4.73v4.025h-2.077v-.001zm9.237 0V3.594h2.079v9.727h-2.08zm10.113 0l-1.917-3.456h-1.522v3.456h-2.078V3.594h4.574c.51 0 .967.078 1.371.234.407.155.75.374 1.034.655.285.282.501.616.654 1 .152.384.226.8.226 1.247 0 .428-.061.807-.183 1.138a2.786 2.786 0 0 1-.495.853 2.775 2.775 0 0 1-1.474.897l2.197 3.704h-2.387v-.001zm-1.26-5.28c.421 0 .77-.115 1.048-.35.278-.232.417-.553.417-.962 0-.408-.138-.729-.417-.963-.278-.232-.627-.35-1.047-.35h-2.18v2.625h2.18zm14.156 5.28v-6.81l-2.751 6.81h-.907l-2.752-6.81v6.81h-2.078V3.594h2.908l2.368 5.878 2.368-5.878h2.925v9.727h-2.08z" fill="#000"/><g fill="#EF4423"><path d="M78.34 7.981C78.342 3.61 74.783.067 70.396.066c-4.394-.002-7.95 3.544-7.95 7.918 0 4.373 3.556 7.92 7.946 7.918 4.393-.002 7.949-3.546 7.948-7.92zm-9.688 5.227c-.398.076-.354-.11-.23-.277.05-.064.102-.116.168-.187.841-.953 1.5-1.305.407-1.305-1.064 0-1.45-.02-1.743-.312l-.009-.008-.01-.01c-.186-.187-.309-.706-.309-1.736 0-1.087-.354-.432-1.314.404-.07.068-.123.121-.188.17-.165.123-.352.168-.277-.23.131-.68.769-2.421 1.553-2.933 1.148-.755 2.25-.715 2.61-.978 2.518-1.81 4.925-2.527 5.436-2.16.367.508-.349 2.903-2.168 5.414-.266.361-.223 1.46-.983 2.602-.513.782-2.261 1.415-2.943 1.546z"/><path d="M72.31 7.48a1.357 1.357 0 0 1-1.417 1.313 1.373 1.373 0 0 1-1.316-1.414 1.372 1.372 0 0 1 1.421-1.314A1.36 1.36 0 0 1 72.31 7.48z"/></g><rect stroke="#000" opacity=".7" x="122" y="2" width="30" height="13" rx="3"/><text font-family="Helvetica Neue" font-size="8" fill="#000"><tspan x="128" y="11">2016</tspan></text></g></svg>